<svg width="160" height="195" viewBox="0 0 160 195" fill="none" xmlns="http://www.w3.org/2000/svg">
<path d="M79.8828 194.141C81.4453 194.141 83.8867 193.555 86.3281 192.285C141.895 163.184 159.766 148.633 159.766 113.575V39.9415C159.766 29.8829 155.469 26.6602 147.266 23.2422C135.84 18.5547 99.3164 5.27344 87.9883 1.36719C85.3516 0.48828 82.6172 0 79.8828 0C77.1484 0 74.4141 0.58594 71.875 1.36719C60.4492 5.07813 23.9258 18.6524 12.5 23.2422C4.39453 26.5625 0 29.8829 0 39.9415V113.575C0 148.633 18.8477 161.524 73.4375 192.285C75.9766 193.653 78.3203 194.141 79.8828 194.141Z" fill="black" fill-opacity="0.85"/>
</svg>
